<svg xmlns="http://www.w3.org/2000/svg" width="850" height="250" viewBox="0 0 850 250" version="1.1"><path d="M 27.764 56.981 C 17.478 60.134, 13.335 67.196, 12.353 83.250 L 11.696 94 6.848 94 L 2 94 2 105 L 2 116 6.988 116 L 11.975 116 12.238 152.750 L 12.500 189.500 25.250 189.780 L 38 190.060 38 153.030 L 38 116 46.534 116 L 55.068 116 54.784 105.250 L 54.500 94.500 46.112 94.207 L 37.724 93.915 38.365 87.707 C 39.158 80.037, 40.391 79, 48.724 79 L 55.066 79 54.783 67.750 L 54.500 56.500 42.500 56.321 C 35.900 56.223, 29.269 56.520, 27.764 56.981 M 323 80.680 L 323 105.360 319.544 101.322 C 309.207 89.246, 287.297 90.654, 277.482 104.025 C 270.983 112.878, 269.669 118.238, 269.208 137.769 C 268.739 157.676, 269.799 165.684, 274.094 174.692 C 279.293 185.594, 288.640 191.250, 301.458 191.250 C 309.137 191.250, 315.323 188.674, 319.750 183.632 L 323 179.930 323 184.965 L 323 190 336 190 L 349 190 349 123 L 349 56 336 56 L 323 56 323 80.680 M 92 94.446 C 83.809 96.751, 80.066 98.839, 74.952 103.952 C 69.729 109.176, 67.696 112.901, 65.374 121.500 C 63.562 128.209, 63.553 155.736, 65.359 162.500 C 69.180 176.802, 77.914 185.957, 91.236 189.622 C 98 191.483, 113 191.483, 119.764 189.622 C 134.058 185.689, 143.240 175.242, 145.870 159.918 C 147.283 151.685, 147.320 133.582, 145.940 125 C 143.343 108.845, 134.103 98.527, 118.500 94.359 C 112.307 92.705, 98.018 92.751, 92 94.446 M 194 94.431 C 174.591 99.832, 166.014 114.276, 166.051 141.500 C 166.077 160.935, 169.872 173.078, 178.504 181.349 C 192.766 195.015, 224.579 194.504, 238.459 180.388 C 240.561 178.249, 243.680 173.575, 245.390 170 C 248.458 163.587, 248.505 163.258, 248.844 145.500 C 249.307 121.246, 247.633 114.134, 239.290 104.900 C 234.806 99.936, 228.654 96.259, 221.764 94.425 C 215.354 92.719, 200.142 92.722, 194 94.431 M 303.500 117.900 C 300.385 119.273, 297.048 123.346, 295.976 127.083 C 295.439 128.955, 295.010 136.115, 295.022 142.993 C 295.047 157.428, 296.670 162.744, 301.872 165.434 C 305.869 167.501, 313.462 167.431, 317.080 165.294 C 322.087 162.336, 323 158.831, 323 142.567 C 323 127.064, 322.179 123.196, 318.123 119.581 C 315.727 117.446, 306.846 116.425, 303.500 117.900 M 97.116 119.712 C 91.543 122.458, 90.048 127.215, 90.022 142.290 C 89.997 156.843, 91.532 161.673, 97.098 164.551 C 101.207 166.676, 110.152 166.614, 113.839 164.436 C 119.415 161.142, 120.469 157.894, 120.798 143 C 121.138 127.655, 120.153 124.312, 114.102 120.270 C 109.953 117.498, 102.133 117.241, 97.116 119.712 M 199.299 119.960 C 194.264 123.029, 192.730 127.111, 192.198 138.855 C 191.575 152.588, 192.991 158.907, 197.595 162.949 C 201.982 166.801, 210.340 167.427, 216.289 164.350 C 221.985 161.405, 222.993 158.046, 222.993 142 C 222.993 129.217, 222.754 127.108, 220.974 124.190 C 217.289 118.146, 205.914 115.926, 199.299 119.960" stroke="none" fill="#647c4c" fill-rule="evenodd"/><path d="M 411.500 58.106 C 387.705 61.525, 374.623 77.095, 376.301 100 C 377.816 120.695, 386.487 128.214, 415.500 133.993 C 443.404 139.552, 448.792 143.372, 447.814 156.900 C 447.044 167.543, 440.403 173.065, 425.760 175.238 C 412.977 177.136, 397.577 173.618, 386.740 166.325 L 381.508 162.804 378.146 166.652 C 376.298 168.768, 373.617 172.012, 372.190 173.860 L 369.594 177.221 373.047 180.050 C 377.759 183.910, 389.231 189.507, 396.500 191.492 C 409.768 195.114, 431.214 194.538, 443 190.244 C 461.678 183.439, 471.124 165.857, 466.878 145.799 C 465.467 139.132, 463.831 135.925, 459.253 130.859 C 453.728 124.743, 445.755 121.297, 427.101 116.965 C 417.970 114.844, 408.867 112.426, 406.871 111.592 C 398.215 107.972, 394.215 101.669, 395.534 93.729 C 397.546 81.616, 406.431 75.977, 423.432 76.021 C 432.378 76.044, 442.212 78.889, 449.095 83.444 C 451.219 84.850, 453.386 86, 453.910 86 C 454.435 86, 457.164 82.737, 459.976 78.750 L 465.087 71.500 462.794 69.597 C 458.592 66.112, 444.597 60.183, 436.792 58.581 C 428.495 56.879, 421.018 56.738, 411.500 58.106 M 517.347 96.057 C 508.866 97.536, 501.339 100.868, 496.420 105.322 L 491.780 109.522 498.768 114.340 L 505.755 119.158 511.128 116.415 C 515.158 114.358, 518.418 113.558, 524.178 113.212 C 537.540 112.410, 543.958 117.508, 545.512 130.158 L 546.207 135.816 526.354 136.188 C 508.040 136.531, 506.134 136.740, 501.779 138.876 C 495.752 141.834, 490.457 147.695, 488.845 153.193 C 486.789 160.205, 487.321 171.637, 489.989 177.794 C 494.353 187.861, 502.969 192.757, 518 193.709 C 528.656 194.384, 536.594 192.801, 541.927 188.938 L 546 185.987 546 189.494 L 546 193 555 193 L 564 193 563.988 158.750 C 563.975 121.093, 563.559 117.580, 558.188 109.773 C 556.512 107.338, 553.600 104.169, 551.715 102.732 C 544.535 97.255, 528.421 94.126, 517.347 96.057 M 711.688 96.040 C 702.944 97.399, 694.539 101.582, 689.839 106.913 C 681.388 116.499, 679 124.889, 679 145 C 679 165.480, 681.610 174.375, 690.118 182.882 C 705.114 197.878, 734.234 197.728, 751.605 182.566 L 755.118 179.500 748.656 173.125 L 742.194 166.750 738.778 169.355 C 728.801 176.966, 712.132 177.133, 704.166 169.702 C 701.117 166.858, 698.438 161.487, 697.705 156.750 L 697.126 153 727.063 153 L 757 153 756.983 144.250 C 756.916 110.663, 739.166 91.770, 711.688 96.040 M 821 95.932 C 815.510 97.033, 810.671 99.727, 806.158 104.195 L 802 108.312 802 102.656 L 802 97 792 97 L 782 97 782 145 L 782 193 792 193 L 802 193 802.006 160.750 C 802.009 142.595, 802.443 126.945, 802.999 124.943 C 806.015 114.086, 823.989 110.034, 832.746 118.237 C 833.981 119.394, 835.149 120.152, 835.341 119.921 C 839.013 115.489, 847 104.036, 847 103.203 C 847 101.272, 838.754 97.200, 832.566 96.077 C 826.112 94.906, 826.118 94.906, 821 95.932 M 581.488 103.750 C 582.833 107.463, 590.864 128.950, 599.334 151.500 L 614.736 192.500 622.253 192.790 L 629.769 193.080 634.464 180.290 C 637.046 173.255, 641.557 161.200, 644.488 153.500 C 650.562 137.544, 656.052 122.902, 660.049 112 C 661.562 107.875, 663.294 103.233, 663.900 101.685 C 664.505 100.137, 665 98.449, 665 97.935 C 665 97.417, 660.536 97, 655 97 C 649.500 97, 645 97.156, 645 97.346 C 645 97.537, 640.913 109.574, 635.918 124.096 C 630.923 138.618, 625.857 153.547, 624.660 157.272 L 622.483 164.044 615.185 142.772 C 611.170 131.072, 606.002 115.987, 603.698 109.250 L 599.511 97 589.277 97 L 579.043 97 581.488 103.750 M 709.235 115.528 C 703.034 118.668, 699.336 124.112, 698.102 131.919 L 697.299 137 718.086 137 L 738.874 137 738.326 133.250 C 735.899 116.670, 722.775 108.674, 709.235 115.528 M 517.500 151.690 C 509.384 152.747, 505.988 156.445, 506.015 164.200 C 506.035 170.210, 507.794 173.133, 513.003 175.816 C 517.012 177.881, 518.586 178.092, 527.500 177.765 C 538.646 177.356, 543.436 175.615, 545.043 171.387 C 545.569 170.003, 546 164.849, 546 159.935 L 546 151 533.250 151.150 C 526.237 151.232, 519.150 151.475, 517.500 151.690" stroke="none" fill="#db7b4b" fill-rule="evenodd"/></svg>